<svg xmlns="http://www.w3.org/2000/svg" width="600" height="600" viewBox="0 0 2048 2048">
    <path fill="#032459"
        d="M1108 377h32l31 2 30 3 36 6 40 10 36 12 22 9 24 11 30 16 22 14 17 12 13 10 13 11 12 11 13 12 11 12 12 13 9 11 8 9 7 8 7 6 52 27 82 44 44 24 12 7v3l-21 8-39 16-26 11-27 11-31 13-41 17-26 11-3 8-5 21-5 28-1 11v38l3 25 6 32 14 59 7 35 6 37 5 42 3 40v61l-3 34-5 35-6 29-8 30-12 33-11 26-8 17-12 22-14 25-14 21-10 14-11 14-11 13-9 10-7 8-16 16-8 7-14 12-20 15-19 12-28 15-31 14-36 13-31 9-31 7-31 5-32 3-24 1h-23l-34-2-25-3-37-6-40-10-33-11-28-11-33-15-24-12-21-12-19-12-15-10-14-10-17-13-14-11-16-13-11-10-8-7-26-26-7-8-4-2-24 15-19 12-27 15-38 19-25 11-27 10-31 10-26 7-29 6-48 7-19 2h-12l3-10 14-45 15-51 14-47 15-51 19-60 11-35 42-126 21-61 18-49 15-37 13-29 11-23 9-19 11-20 6-12 13-21 10-16 14-20 11-14 12-14 9-11 3-8 6-32 6-24 12-37 13-32 15-32 13-23 12-20 10-15 13-17 11-14 11-13 9-10 18-18 11-9 9-8 17-13 18-13 16-10 24-14 32-16 24-10 25-9 26-8 24-6 36-7 36-5 24-2z" />
    <path fill="#42C1ED"
        d="M1207 534h27l9 2 10 4v2l9 3v2l4 1 11 8 9 10 5 8v3h2l7 16 2 9v25l-2 10-5 13 9 3 80 21 26 7 6 4 5 3 11 10 11 9 28 24 13 11 14 12 8 7 6 4-3 10-5 21-5 28-1 11v38l3 25 6 32 14 59 7 35 6 37 5 42 3 40v61l-3 34-5 35-6 29-8 30-12 33-11 26-8 17-12 22-14 25-14 21-10 14-11 14-11 13-9 10-7 8-16 16-8 7-14 12-20 15-19 12-28 15-31 14-36 13-31 9-31 7-31 5-32 3-24 1h-23l-34-2-25-3-37-6-40-10-33-11-28-11-33-15-24-12-21-12-19-12-15-10-21-15-1-5 7-5 23-11 22-12 20-12 24-16 16-12 13-10 14-12 15-13 13-12 21-21 7-8 9-10 11-14 10-13 10-14 18-27 10-17 10-18 13-26 13-32 11-33 8-30 5-24 5-35 3-37v-29l-3-38-4-29-13-3-32-9-22-8-24-11-19-11-17-12-13-12-9-9-10-13-11-18-9-19-6-18-4-19-1-8v-28l4-24 5-17 9-21 11-18 11-14 12-14 8-7 13-10 13-8 16-8 15-6 24-7 23-4 34-1 16 2 43 11 20 5v-21l5-22 6-13h2l1-5 13-15 14-10 13-6 11-4z" />
    <path fill="#0383D0"
        d="m748 524 27 8 37 10 39 11 49 14 43 11 43 12 42 12 24 7 13 4v1l-41 1-23 4-24 7-20 8-18 10-14 10-11 10-5 4-9 11-10 13-12 20-10 25-4 16-3 19v28l3 18 4 15 7 19 10 19 8 12 7 9 9 10 9 9 13 10 16 10 16 9 25 11 27 9 27 7 8 2 1 1 4 29 3 38v29l-3 37-6 40-5 23-7 26-12 36-13 31-16 32-14 24-20 30-8 11-12 16-9 11-12 14-15 16-21 21-8 7-28 24-16 12-11 8-21 14-20 12-16 9-27 14-10 5v5l-5-2-16-13-14-11-14-12-13-12-14-14v-5l29-9 20-7 26-11 26-12 21-11 20-12 23-16 19-14 11-9 12-11 15-14 8-8 7-8 12-14 12-17 11-17 13-24 10-23 7-21 7-30 4-27 1-13v-22l-2-21-4-22-6-21-6-17-9-20-13-22-11-16-10-13-12-13-9-9-14-11-18-13-17-11-20-11-23-10-25-9-28-8-27-5-32-4h-43l-35 5-25 6-19 5-3-1 2-7 5-9 13-19 12-16 11-13 9-11 6-7 3-14 7-34 7-25 12-35 11-26 14-30 13-23 12-20 10-15 13-17 11-14 11-13 9-10z" />
    <path fill="#42C1ED"
        d="m506 1215 5 2 16 10 17 10 23 11 25 9 31 8 30 5 12 1h18l26-3 31-6 31-9 24-10 5-2 1 3-9 25-8 18-10 20-9 15-7 11-10 14-9 12-12 14-11 12-9 10-25 25-8 7-14 12-13 10-12 9-1 3-3-1-24 15-19 12-27 15-38 19-25 11-27 10-31 10-26 7-29 6-48 7-19 2h-12l3-10 14-45 15-51 14-47 3-10 5-1 20-11 16-11 14-11 13-12 16-16 11-14 9-12 12-18 12-23 8-18 7-20 6-21 1-7z" />
    <path fill="#0383D0"
        d="m1518 568 6 3 2-2 7 6 52 27 82 44 44 24 12 7v3l-21 8-39 16-26 11-27 11-31 13-41 17-23 10-5-1-11-9-12-11-11-9-15-13-13-11-14-12-11-9-4-4-8-4 2-1 2-5h2l2-4 21-21 7-8 7-7 7-8 30-32 11-12 15-16z" />
    <path fill="#FAFCFD"
        d="M1207 534h27l9 2 10 4v2l9 3v2l4 1 11 8 9 10 5 8v3h2l7 16 2 9v25l-2 10-5 13-9 15-9 11-12 10-15 8-14 4-6 1h-20l-15-3-12-5-11-6-12-11-7-8-8-14-5-13-2-11v-24l4-16 6-13h2l1-5 13-15 14-10 13-6 11-4z" />
    <path fill="#032459"
        d="M1717 677h6v3l-21 8-39 16-26 11-27 11-31 13-41 17-23 10-5-1-11-9-12-11-11-9-15-13-13-11-14-12-11-9-6-5v-3l237-1 52-1 10-3zM1215 574h10l12 4 9 6 7 7 6 12 1 5v18l-3 11-3 5-6 5-1 2-3 1-3 3-9 4-5 1h-14l-10-3-10-7-7-7v-2h-2l-4-8-2-9v-10l3-12 5-9 6-7 12-7z" />
</svg>